<mxfile host="65bd71144e" scale="2" border="0">
    <diagram id="8D6o-nj5cP6X0jyl-FAh" name="Page-1">
        <mxGraphModel dx="379" dy="432" grid="1" gridSize="10" guides="1" tooltips="1" connect="1" arrows="1" fold="1" page="1" pageScale="1" pageWidth="850" pageHeight="1100" background="#DAD2D8" math="0" shadow="0">
            <root>
                <mxCell id="0"/>
                <mxCell id="1" parent="0"/>
                <mxCell id="94" value="pipefd2[0]" style="text;html=1;strokeColor=none;fillColor=none;align=center;verticalAlign=middle;whiteSpace=wrap;fontColor=#143642;" vertex="1" parent="1">
                    <mxGeometry x="510" y="270" width="40" height="20" as="geometry"/>
                </mxCell>
                <mxCell id="95" value="pipefd2[1]" style="text;html=1;strokeColor=none;fillColor=none;align=center;verticalAlign=middle;whiteSpace=wrap;fontColor=#143642;" vertex="1" parent="1">
                    <mxGeometry x="510" y="290" width="40" height="20" as="geometry"/>
                </mxCell>
                <mxCell id="84" value="pipefd1[1]" style="text;html=1;strokeColor=none;fillColor=none;align=center;verticalAlign=middle;whiteSpace=wrap;fontColor=#143642;" vertex="1" parent="1">
                    <mxGeometry x="370" y="420" width="40" height="20" as="geometry"/>
                </mxCell>
                <mxCell id="67" value="" style="whiteSpace=wrap;html=1;aspect=fixed;fillColor=#FAE5C7;strokeColor=#0F8B8D;fontColor=#143642;" vertex="1" parent="1">
                    <mxGeometry x="30" y="360" width="250" height="250" as="geometry"/>
                </mxCell>
                <mxCell id="61" value="" style="whiteSpace=wrap;html=1;aspect=fixed;fillColor=#FAE5C7;strokeColor=#0F8B8D;fontColor=#143642;" vertex="1" parent="1">
                    <mxGeometry x="440" y="360" width="250" height="250" as="geometry"/>
                </mxCell>
                <mxCell id="109" style="edgeStyle=orthogonalEdgeStyle;rounded=0;orthogonalLoop=1;jettySize=auto;html=1;exitX=1;exitY=0.5;exitDx=0;exitDy=0;entryX=0.5;entryY=0;entryDx=0;entryDy=0;startArrow=oval;startFill=0;endArrow=none;endFill=0;strokeWidth=2;strokeColor=#A8201A;fontColor=#143642;labelBackgroundColor=#DAD2D8;" edge="1" parent="1" source="60" target="12">
                    <mxGeometry relative="1" as="geometry"/>
                </mxCell>
                <mxCell id="110" value="fork&lt;br&gt;" style="edgeLabel;html=1;align=center;verticalAlign=middle;resizable=0;points=[];fontColor=#143642;labelBackgroundColor=#DAD2D8;" vertex="1" connectable="0" parent="109">
                    <mxGeometry x="0.2953" y="-3" relative="1" as="geometry">
                        <mxPoint as="offset"/>
                    </mxGeometry>
                </mxCell>
                <mxCell id="60" value="" style="whiteSpace=wrap;html=1;aspect=fixed;fillColor=#FAE5C7;strokeColor=#0F8B8D;fontColor=#143642;" vertex="1" parent="1">
                    <mxGeometry x="40" y="135" width="215" height="215" as="geometry"/>
                </mxCell>
                <mxCell id="2" value="pipefd" style="whiteSpace=wrap;html=1;fillColor=#FAE5C7;strokeColor=#0F8B8D;fontColor=#143642;" vertex="1" parent="1">
                    <mxGeometry x="170" y="40" width="120" height="60" as="geometry"/>
                </mxCell>
                <mxCell id="3" value="pipefd[1]" style="text;html=1;strokeColor=none;fillColor=none;align=center;verticalAlign=middle;whiteSpace=wrap;fontColor=#143642;" vertex="1" parent="1">
                    <mxGeometry x="110" y="40" width="40" height="20" as="geometry"/>
                </mxCell>
                <mxCell id="4" value="pipefd[0]" style="text;html=1;strokeColor=none;fillColor=none;align=center;verticalAlign=middle;whiteSpace=wrap;fontColor=#143642;" vertex="1" parent="1">
                    <mxGeometry x="310" y="40" width="40" height="20" as="geometry"/>
                </mxCell>
                <mxCell id="6" value="" style="shape=flexArrow;endArrow=classic;html=1;strokeColor=#A8201A;fontColor=#143642;labelBackgroundColor=#DAD2D8;" edge="1" parent="1">
                    <mxGeometry width="50" height="50" relative="1" as="geometry">
                        <mxPoint x="105" y="80" as="sourcePoint"/>
                        <mxPoint x="170" y="80" as="targetPoint"/>
                    </mxGeometry>
                </mxCell>
                <mxCell id="8" value="" style="shape=flexArrow;endArrow=classic;html=1;strokeColor=#A8201A;fontColor=#143642;labelBackgroundColor=#DAD2D8;" edge="1" parent="1">
                    <mxGeometry width="50" height="50" relative="1" as="geometry">
                        <mxPoint x="290" y="80" as="sourcePoint"/>
                        <mxPoint x="355" y="80" as="targetPoint"/>
                    </mxGeometry>
                </mxCell>
                <mxCell id="9" value="" style="ellipse;whiteSpace=wrap;html=1;aspect=fixed;fillColor=#FAE5C7;strokeColor=#0F8B8D;fontColor=#143642;" vertex="1" parent="1">
                    <mxGeometry x="110" y="200" width="80" height="80" as="geometry"/>
                </mxCell>
                <mxCell id="10" value="" style="ellipse;whiteSpace=wrap;html=1;aspect=fixed;fillColor=#FAE5C7;strokeColor=#0F8B8D;fontColor=#143642;" vertex="1" parent="1">
                    <mxGeometry x="110" y="420" width="80" height="80" as="geometry"/>
                </mxCell>
                <mxCell id="11" value="" style="ellipse;whiteSpace=wrap;html=1;aspect=fixed;fillColor=#FAE5C7;strokeColor=#0F8B8D;fontColor=#143642;" vertex="1" parent="1">
                    <mxGeometry x="580" y="420" width="80" height="80" as="geometry"/>
                </mxCell>
                <mxCell id="111" style="edgeStyle=orthogonalEdgeStyle;rounded=0;orthogonalLoop=1;jettySize=auto;html=1;exitX=0;exitY=1;exitDx=0;exitDy=0;entryX=1;entryY=0.25;entryDx=0;entryDy=0;startArrow=oval;startFill=0;endArrow=none;endFill=0;strokeWidth=2;strokeColor=#A8201A;fontColor=#143642;labelBackgroundColor=#DAD2D8;" edge="1" parent="1" source="12" target="67">
                    <mxGeometry relative="1" as="geometry"/>
                </mxCell>
                <mxCell id="112" value="fork&lt;br&gt;" style="edgeLabel;html=1;align=center;verticalAlign=middle;resizable=0;points=[];fontColor=#143642;labelBackgroundColor=#DAD2D8;" vertex="1" connectable="0" parent="111">
                    <mxGeometry x="-0.0706" relative="1" as="geometry">
                        <mxPoint as="offset"/>
                    </mxGeometry>
                </mxCell>
                <mxCell id="113" style="edgeStyle=orthogonalEdgeStyle;rounded=0;orthogonalLoop=1;jettySize=auto;html=1;exitX=1;exitY=0.5;exitDx=0;exitDy=0;entryX=0.5;entryY=0;entryDx=0;entryDy=0;startArrow=oval;startFill=0;endArrow=none;endFill=0;strokeWidth=2;strokeColor=#A8201A;fontColor=#143642;labelBackgroundColor=#DAD2D8;" edge="1" parent="1" source="12" target="61">
                    <mxGeometry relative="1" as="geometry"/>
                </mxCell>
                <mxCell id="114" value="fork&lt;br&gt;" style="edgeLabel;html=1;align=center;verticalAlign=middle;resizable=0;points=[];fontColor=#143642;labelBackgroundColor=#DAD2D8;" vertex="1" connectable="0" parent="113">
                    <mxGeometry x="-0.0954" y="-3" relative="1" as="geometry">
                        <mxPoint as="offset"/>
                    </mxGeometry>
                </mxCell>
                <mxCell id="12" value="minishell" style="ellipse;whiteSpace=wrap;html=1;aspect=fixed;fillColor=#FAE5C7;strokeColor=#0F8B8D;fontColor=#143642;" vertex="1" parent="1">
                    <mxGeometry x="330" y="280" width="80" height="80" as="geometry"/>
                </mxCell>
                <mxCell id="16" value="" style="shape=link;html=1;entryX=0.5;entryY=1;entryDx=0;entryDy=0;exitX=0.5;exitY=0;exitDx=0;exitDy=0;strokeColor=#A8201A;fontColor=#143642;labelBackgroundColor=#DAD2D8;" edge="1" parent="1" source="10" target="9">
                    <mxGeometry width="100" relative="1" as="geometry">
                        <mxPoint x="110" y="330" as="sourcePoint"/>
                        <mxPoint x="210" y="330" as="targetPoint"/>
                    </mxGeometry>
                </mxCell>
                <mxCell id="18" value="" style="shape=link;html=1;exitX=0.99;exitY=0.62;exitDx=0;exitDy=0;exitPerimeter=0;strokeColor=#A8201A;fontColor=#143642;labelBackgroundColor=#DAD2D8;" edge="1" parent="1" target="11">
                    <mxGeometry width="100" relative="1" as="geometry">
                        <mxPoint x="189.20000000000005" y="459.40000000000003" as="sourcePoint"/>
                        <mxPoint x="360" y="461" as="targetPoint"/>
                    </mxGeometry>
                </mxCell>
                <mxCell id="20" value="pipefd2[1]" style="text;html=1;strokeColor=none;fillColor=none;align=center;verticalAlign=middle;whiteSpace=wrap;fontColor=#143642;" vertex="1" parent="1">
                    <mxGeometry x="220" y="520" width="40" height="20" as="geometry"/>
                </mxCell>
                <mxCell id="21" value="pipefd1[1]" style="text;html=1;strokeColor=none;fillColor=none;align=center;verticalAlign=middle;whiteSpace=wrap;fontColor=#143642;" vertex="1" parent="1">
                    <mxGeometry x="170" y="280" width="40" height="20" as="geometry"/>
                </mxCell>
                <mxCell id="32" value="ls&lt;br&gt;" style="endArrow=classic;html=1;strokeColor=#A8201A;fontColor=#143642;labelBackgroundColor=#DAD2D8;" edge="1" parent="1">
                    <mxGeometry relative="1" as="geometry">
                        <mxPoint x="60" y="239.6" as="sourcePoint"/>
                        <mxPoint x="230" y="239.6" as="targetPoint"/>
                    </mxGeometry>
                </mxCell>
                <mxCell id="34" value="stdin" style="edgeLabel;resizable=0;html=1;align=left;verticalAlign=bottom;fontColor=#143642;labelBackgroundColor=#DAD2D8;" connectable="0" vertex="1" parent="32">
                    <mxGeometry x="-1" relative="1" as="geometry"/>
                </mxCell>
                <mxCell id="35" value="stdout" style="edgeLabel;resizable=0;html=1;align=right;verticalAlign=bottom;fontColor=#143642;labelBackgroundColor=#DAD2D8;" connectable="0" vertex="1" parent="32">
                    <mxGeometry x="1" relative="1" as="geometry"/>
                </mxCell>
                <mxCell id="36" value="pipefd1[0]" style="text;html=1;align=center;verticalAlign=middle;whiteSpace=wrap;fontColor=#143642;" vertex="1" parent="1">
                    <mxGeometry x="170" y="300" width="40" height="20" as="geometry"/>
                </mxCell>
                <mxCell id="37" value="pipefd2[0]" style="text;html=1;strokeColor=none;fillColor=none;align=center;verticalAlign=middle;whiteSpace=wrap;fontColor=#143642;" vertex="1" parent="1">
                    <mxGeometry x="220" y="540" width="40" height="20" as="geometry"/>
                </mxCell>
                <mxCell id="38" value="grep libft" style="endArrow=classic;html=1;strokeColor=#A8201A;fontColor=#143642;labelBackgroundColor=#DAD2D8;" edge="1" parent="1">
                    <mxGeometry relative="1" as="geometry">
                        <mxPoint x="60" y="520" as="sourcePoint"/>
                        <mxPoint x="240" y="400" as="targetPoint"/>
                    </mxGeometry>
                </mxCell>
                <mxCell id="40" value="stdin" style="edgeLabel;resizable=0;html=1;align=left;verticalAlign=bottom;fontColor=#143642;labelBackgroundColor=#DAD2D8;" connectable="0" vertex="1" parent="38">
                    <mxGeometry x="-1" relative="1" as="geometry"/>
                </mxCell>
                <mxCell id="41" value="stdout" style="edgeLabel;resizable=0;html=1;align=right;verticalAlign=bottom;fontColor=#143642;labelBackgroundColor=#DAD2D8;" connectable="0" vertex="1" parent="38">
                    <mxGeometry x="1" relative="1" as="geometry">
                        <mxPoint x="20.28" y="29.82" as="offset"/>
                    </mxGeometry>
                </mxCell>
                <mxCell id="44" value="rev" style="endArrow=classic;html=1;strokeColor=#A8201A;fontColor=#143642;labelBackgroundColor=#DAD2D8;" edge="1" parent="1">
                    <mxGeometry relative="1" as="geometry">
                        <mxPoint x="619.6" y="550" as="sourcePoint"/>
                        <mxPoint x="619.6" y="380" as="targetPoint"/>
                    </mxGeometry>
                </mxCell>
                <mxCell id="46" value="stdin" style="edgeLabel;resizable=0;html=1;align=left;verticalAlign=bottom;fontColor=#143642;labelBackgroundColor=#DAD2D8;" connectable="0" vertex="1" parent="44">
                    <mxGeometry x="-1" relative="1" as="geometry"/>
                </mxCell>
                <mxCell id="47" value="stdout" style="edgeLabel;resizable=0;html=1;align=right;verticalAlign=bottom;fontColor=#143642;labelBackgroundColor=#DAD2D8;" connectable="0" vertex="1" parent="44">
                    <mxGeometry x="1" relative="1" as="geometry"/>
                </mxCell>
                <mxCell id="53" value="" style="endArrow=none;html=1;strokeWidth=2;fillColor=#FAE5C7;strokeColor=#A8201A;fontColor=#143642;labelBackgroundColor=#DAD2D8;" edge="1" parent="1">
                    <mxGeometry width="50" height="50" relative="1" as="geometry">
                        <mxPoint x="150" y="309.6" as="sourcePoint"/>
                        <mxPoint x="230" y="310" as="targetPoint"/>
                    </mxGeometry>
                </mxCell>
                <mxCell id="55" value="close" style="text;html=1;strokeColor=#0F8B8D;fillColor=#FAE5C7;align=center;verticalAlign=middle;whiteSpace=wrap;rounded=0;fontColor=#143642;" vertex="1" parent="1">
                    <mxGeometry x="100" y="300" width="40" height="20" as="geometry"/>
                </mxCell>
                <mxCell id="56" value="dup2" style="text;html=1;strokeColor=#0F8B8D;fillColor=#FAE5C7;align=center;verticalAlign=middle;whiteSpace=wrap;rounded=0;fontColor=#143642;" vertex="1" parent="1">
                    <mxGeometry x="100" y="280" width="40" height="20" as="geometry"/>
                </mxCell>
                <mxCell id="58" value="" style="endArrow=none;startArrow=classic;html=1;fillColor=#FAE5C7;strokeColor=#A8201A;strokeWidth=2;endFill=0;fontColor=#143642;labelBackgroundColor=#DAD2D8;" edge="1" parent="1">
                    <mxGeometry width="50" height="50" relative="1" as="geometry">
                        <mxPoint x="200" y="280" as="sourcePoint"/>
                        <mxPoint x="230" y="250" as="targetPoint"/>
                    </mxGeometry>
                </mxCell>
                <mxCell id="69" value="dup2" style="text;html=1;strokeColor=#0F8B8D;fillColor=#FAE5C7;align=center;verticalAlign=middle;whiteSpace=wrap;rounded=0;fontColor=#143642;" vertex="1" parent="1">
                    <mxGeometry x="160" y="390" width="40" height="20" as="geometry"/>
                </mxCell>
                <mxCell id="70" value="close" style="text;html=1;strokeColor=#0F8B8D;fillColor=#FAE5C7;align=center;verticalAlign=middle;whiteSpace=wrap;rounded=0;fontColor=#143642;" vertex="1" parent="1">
                    <mxGeometry x="160" y="370" width="40" height="20" as="geometry"/>
                </mxCell>
                <mxCell id="71" value="pipefd1[1]" style="text;html=1;strokeColor=none;fillColor=none;align=center;verticalAlign=middle;whiteSpace=wrap;fontColor=#143642;" vertex="1" parent="1">
                    <mxGeometry x="90" y="370" width="40" height="20" as="geometry"/>
                </mxCell>
                <mxCell id="72" value="pipefd1[0]" style="text;html=1;align=center;verticalAlign=middle;whiteSpace=wrap;fontColor=#143642;" vertex="1" parent="1">
                    <mxGeometry x="90" y="390" width="40" height="20" as="geometry"/>
                </mxCell>
                <mxCell id="73" value="" style="endArrow=none;html=1;strokeWidth=2;fillColor=#FAE5C7;strokeColor=#A8201A;fontColor=#143642;labelBackgroundColor=#DAD2D8;" edge="1" parent="1">
                    <mxGeometry width="50" height="50" relative="1" as="geometry">
                        <mxPoint x="70" y="379.6" as="sourcePoint"/>
                        <mxPoint x="150" y="380" as="targetPoint"/>
                    </mxGeometry>
                </mxCell>
                <mxCell id="75" value="" style="endArrow=none;startArrow=classic;html=1;strokeWidth=2;fillColor=#FAE5C7;strokeColor=#A8201A;entryX=0;entryY=1;entryDx=0;entryDy=0;endFill=0;fontColor=#143642;labelBackgroundColor=#DAD2D8;" edge="1" parent="1" target="72">
                    <mxGeometry width="50" height="50" relative="1" as="geometry">
                        <mxPoint x="70" y="500" as="sourcePoint"/>
                        <mxPoint x="90" y="420" as="targetPoint"/>
                    </mxGeometry>
                </mxCell>
                <mxCell id="76" value="pipefd1[0]" style="text;html=1;align=center;verticalAlign=middle;whiteSpace=wrap;fontColor=#143642;" vertex="1" parent="1">
                    <mxGeometry x="370" y="400" width="40" height="20" as="geometry"/>
                </mxCell>
                <mxCell id="77" value="dup2" style="text;html=1;strokeColor=#0F8B8D;fillColor=#FAE5C7;align=center;verticalAlign=middle;whiteSpace=wrap;rounded=0;fontColor=#143642;" vertex="1" parent="1">
                    <mxGeometry x="160" y="520" width="40" height="20" as="geometry"/>
                </mxCell>
                <mxCell id="78" value="close" style="text;html=1;strokeColor=#0F8B8D;fillColor=#FAE5C7;align=center;verticalAlign=middle;whiteSpace=wrap;rounded=0;fontColor=#143642;" vertex="1" parent="1">
                    <mxGeometry x="160" y="540" width="40" height="20" as="geometry"/>
                </mxCell>
                <mxCell id="79" value="" style="endArrow=none;startArrow=classic;html=1;strokeWidth=2;fillColor=#FAE5C7;strokeColor=#A8201A;entryX=0;entryY=1;entryDx=0;entryDy=0;exitX=0.75;exitY=0;exitDx=0;exitDy=0;endFill=0;fontColor=#143642;labelBackgroundColor=#DAD2D8;" edge="1" parent="1" source="20">
                    <mxGeometry width="50" height="50" relative="1" as="geometry">
                        <mxPoint x="230" y="520" as="sourcePoint"/>
                        <mxPoint x="250" y="430" as="targetPoint"/>
                    </mxGeometry>
                </mxCell>
                <mxCell id="80" value="" style="endArrow=none;html=1;strokeWidth=2;fillColor=#FAE5C7;strokeColor=#A8201A;fontColor=#143642;labelBackgroundColor=#DAD2D8;" edge="1" parent="1">
                    <mxGeometry width="50" height="50" relative="1" as="geometry">
                        <mxPoint x="200" y="549.6" as="sourcePoint"/>
                        <mxPoint x="280" y="550" as="targetPoint"/>
                    </mxGeometry>
                </mxCell>
                <mxCell id="81" value="close" style="text;html=1;strokeColor=#0F8B8D;fillColor=#FAE5C7;align=center;verticalAlign=middle;whiteSpace=wrap;rounded=0;fontColor=#143642;" vertex="1" parent="1">
                    <mxGeometry x="310" y="400" width="40" height="20" as="geometry"/>
                </mxCell>
                <mxCell id="82" value="" style="endArrow=none;html=1;strokeWidth=2;fillColor=#FAE5C7;strokeColor=#A8201A;fontColor=#143642;labelBackgroundColor=#DAD2D8;" edge="1" parent="1">
                    <mxGeometry width="50" height="50" relative="1" as="geometry">
                        <mxPoint x="345" y="410" as="sourcePoint"/>
                        <mxPoint x="425" y="410.4" as="targetPoint"/>
                    </mxGeometry>
                </mxCell>
                <mxCell id="83" value="close" style="text;html=1;strokeColor=#0F8B8D;fillColor=#FAE5C7;align=center;verticalAlign=middle;whiteSpace=wrap;rounded=0;fontColor=#143642;" vertex="1" parent="1">
                    <mxGeometry x="310" y="420" width="40" height="20" as="geometry"/>
                </mxCell>
                <mxCell id="85" value="" style="endArrow=none;html=1;strokeWidth=2;fillColor=#FAE5C7;strokeColor=#A8201A;fontColor=#143642;labelBackgroundColor=#DAD2D8;" edge="1" parent="1">
                    <mxGeometry width="50" height="50" relative="1" as="geometry">
                        <mxPoint x="345" y="429.6" as="sourcePoint"/>
                        <mxPoint x="425" y="430" as="targetPoint"/>
                    </mxGeometry>
                </mxCell>
                <mxCell id="86" value="close" style="text;html=1;strokeColor=#0F8B8D;fillColor=#FAE5C7;align=center;verticalAlign=middle;whiteSpace=wrap;rounded=0;fontColor=#143642;" vertex="1" parent="1">
                    <mxGeometry x="540" y="465" width="40" height="20" as="geometry"/>
                </mxCell>
                <mxCell id="87" value="dup2" style="text;html=1;strokeColor=#0F8B8D;fillColor=#FAE5C7;align=center;verticalAlign=middle;whiteSpace=wrap;rounded=0;fontColor=#143642;" vertex="1" parent="1">
                    <mxGeometry x="540" y="485" width="40" height="20" as="geometry"/>
                </mxCell>
                <mxCell id="88" value="pipefd2[1]" style="text;html=1;strokeColor=none;fillColor=none;align=center;verticalAlign=middle;whiteSpace=wrap;fontColor=#143642;" vertex="1" parent="1">
                    <mxGeometry x="490" y="465" width="40" height="20" as="geometry"/>
                </mxCell>
                <mxCell id="89" value="pipefd2[0]" style="text;html=1;strokeColor=none;fillColor=none;align=center;verticalAlign=middle;whiteSpace=wrap;fontColor=#143642;" vertex="1" parent="1">
                    <mxGeometry x="490" y="485" width="40" height="20" as="geometry"/>
                </mxCell>
                <mxCell id="90" value="" style="endArrow=none;startArrow=classic;html=1;strokeWidth=2;fillColor=#FAE5C7;strokeColor=#A8201A;endFill=0;fontColor=#143642;labelBackgroundColor=#DAD2D8;" edge="1" parent="1">
                    <mxGeometry width="50" height="50" relative="1" as="geometry">
                        <mxPoint x="610" y="530" as="sourcePoint"/>
                        <mxPoint x="510" y="505" as="targetPoint"/>
                    </mxGeometry>
                </mxCell>
                <mxCell id="91" value="" style="endArrow=none;html=1;strokeWidth=2;fillColor=#FAE5C7;strokeColor=#A8201A;fontColor=#143642;labelBackgroundColor=#DAD2D8;" edge="1" parent="1">
                    <mxGeometry width="50" height="50" relative="1" as="geometry">
                        <mxPoint x="460" y="474.6" as="sourcePoint"/>
                        <mxPoint x="540" y="475" as="targetPoint"/>
                    </mxGeometry>
                </mxCell>
                <mxCell id="92" value="close" style="text;html=1;strokeColor=#0F8B8D;fillColor=#FAE5C7;align=center;verticalAlign=middle;whiteSpace=wrap;rounded=0;fontColor=#143642;" vertex="1" parent="1">
                    <mxGeometry x="450" y="270" width="40" height="20" as="geometry"/>
                </mxCell>
                <mxCell id="93" value="close" style="text;html=1;strokeColor=#0F8B8D;fillColor=#FAE5C7;align=center;verticalAlign=middle;whiteSpace=wrap;rounded=0;fontColor=#143642;" vertex="1" parent="1">
                    <mxGeometry x="450" y="290" width="40" height="20" as="geometry"/>
                </mxCell>
                <mxCell id="105" value="" style="endArrow=none;html=1;strokeWidth=2;fillColor=#FAE5C7;strokeColor=#A8201A;fontColor=#143642;labelBackgroundColor=#DAD2D8;" edge="1" parent="1">
                    <mxGeometry width="50" height="50" relative="1" as="geometry">
                        <mxPoint x="490" y="279.2" as="sourcePoint"/>
                        <mxPoint x="570" y="279.59999999999997" as="targetPoint"/>
                    </mxGeometry>
                </mxCell>
                <mxCell id="106" value="" style="endArrow=none;html=1;strokeWidth=2;fillColor=#FAE5C7;strokeColor=#A8201A;fontColor=#143642;labelBackgroundColor=#DAD2D8;" edge="1" parent="1">
                    <mxGeometry width="50" height="50" relative="1" as="geometry">
                        <mxPoint x="490" y="299.20000000000005" as="sourcePoint"/>
                        <mxPoint x="570" y="299.5999999999999" as="targetPoint"/>
                    </mxGeometry>
                </mxCell>
                <mxCell id="115" value="&lt;font size=&quot;1&quot;&gt;&lt;b style=&quot;font-size: 22px&quot;&gt;ls | grep libft | rev&lt;/b&gt;&lt;/font&gt;" style="text;html=1;strokeColor=none;fillColor=none;align=center;verticalAlign=middle;whiteSpace=wrap;rounded=0;fontColor=#143642;" vertex="1" parent="1">
                    <mxGeometry x="350" y="190" width="250" height="30" as="geometry"/>
                </mxCell>
                <mxCell id="116" value="Write" style="text;html=1;strokeColor=none;fillColor=none;align=center;verticalAlign=middle;whiteSpace=wrap;rounded=0;fontColor=#143642;" vertex="1" parent="1">
                    <mxGeometry x="110" y="90" width="40" height="20" as="geometry"/>
                </mxCell>
                <mxCell id="117" value="Read&lt;br&gt;" style="text;html=1;strokeColor=none;fillColor=none;align=center;verticalAlign=middle;whiteSpace=wrap;rounded=0;fontColor=#143642;" vertex="1" parent="1">
                    <mxGeometry x="310" y="100" width="40" height="20" as="geometry"/>
                </mxCell>
                <mxCell id="118" value="waitpid" style="text;html=1;strokeColor=none;fillColor=none;align=center;verticalAlign=middle;whiteSpace=wrap;rounded=0;sketch=0;fontColor=#143642;" vertex="1" parent="1">
                    <mxGeometry x="260" y="270" width="40" height="20" as="geometry"/>
                </mxCell>
                <mxCell id="119" value="waitpid" style="text;html=1;strokeColor=none;fillColor=none;align=center;verticalAlign=middle;whiteSpace=wrap;rounded=0;sketch=0;fontColor=#143642;" vertex="1" parent="1">
                    <mxGeometry x="290" y="505" width="40" height="20" as="geometry"/>
                </mxCell>
                <mxCell id="120" value="waitpid" style="text;html=1;strokeColor=none;fillColor=none;align=center;verticalAlign=middle;whiteSpace=wrap;rounded=0;sketch=0;fontColor=#143642;" vertex="1" parent="1">
                    <mxGeometry x="610" y="340" width="40" height="20" as="geometry"/>
                </mxCell>
            </root>
        </mxGraphModel>
    </diagram>
</mxfile>